<svg width="71" height="72" viewBox="0 0 71 72" fill="none" xmlns="http://www.w3.org/2000/svg">
<path d="M35.7503 71.34C15.9503 71.2 0.490327 55.2 0.710327 35.76C0.930327 16.12 16.7703 0.959961 35.7503 0.959961C55.5703 0.959961 71.1503 16.98 70.9303 36.52C70.7103 56.18 54.8303 71.36 35.7503 71.34ZM33.8903 68.0799C34.4103 68.2199 34.6703 68.04 34.6903 67.34C34.7503 65.9 34.9703 64.46 35.2903 63.04C35.3903 62.6 35.2503 62.4799 34.8703 62.3799C33.5903 62.0599 32.3103 61.7 31.0503 61.36C29.9503 61.06 29.4303 60.2799 29.6903 59.32C29.9303 58.4 30.7903 57.9799 31.9103 58.2799C33.1703 58.5999 34.4303 58.9199 35.6703 59.2799C36.1103 59.3999 36.2903 59.34 36.4303 58.9C36.9703 57.18 37.6703 55.52 38.5103 53.94C38.7303 53.52 38.6303 53.34 38.2503 53.14C37.2903 52.62 36.3503 52.06 35.3903 51.5C34.2103 50.82 33.8503 49.98 34.3503 49.08C34.8503 48.18 35.7703 48.04 36.9503 48.72C37.9503 49.3 38.9503 49.84 39.9303 50.44C40.2903 50.66 40.4703 50.6 40.6903 50.26C41.5503 48.96 42.4903 47.74 43.5503 46.6C43.8303 46.3 43.8303 46.1 43.5303 45.8C42.6703 44.98 41.8303 44.12 40.9903 43.26C40.1703 42.42 40.0903 41.44 40.7903 40.76C41.4903 40.08 42.4103 40.16 43.2303 40.98C44.0903 41.82 44.9303 42.66 45.7703 43.52C46.0703 43.82 46.2503 43.92 46.6103 43.58C47.7903 42.5 49.0503 41.52 50.4103 40.66C50.8103 40.4 50.8903 40.22 50.6303 39.78C49.9103 38.62 49.2503 37.42 48.5703 36.22C48.0303 35.26 48.2103 34.34 49.0303 33.86C49.8703 33.36 50.7703 33.66 51.3503 34.64C52.0503 35.82 52.7303 37 53.4103 38.22C53.6303 38.6 53.8103 38.7 54.2303 38.48C55.7703 37.68 57.3903 37.02 59.0703 36.52C59.5903 36.36 59.6503 36.12 59.5103 35.66C59.1703 34.48 58.8503 33.3 58.5503 32.12C58.2703 31.02 58.6903 30.16 59.6303 29.92C60.5703 29.68 61.3503 30.2 61.6503 31.3C61.9903 32.52 62.3103 33.76 62.6303 34.98C62.7303 35.36 62.8503 35.54 63.2903 35.44C64.6303 35.14 65.9903 35 67.3703 34.9C67.7303 34.88 67.8503 34.76 67.8103 34.4C67.7303 33.66 67.7303 32.9 67.6103 32.16C65.9703 20.9 60.1103 12.62 50.0303 7.37996C46.2303 5.39996 42.1103 4.41996 37.8303 4.11996C37.2503 4.07996 37.0903 4.23996 37.0303 4.81996C36.9303 6.03996 36.7503 7.25996 36.5503 8.45996C36.4703 8.91996 36.5503 9.11996 37.0303 9.23996C38.2703 9.53996 39.4903 9.87996 40.7103 10.22C41.7103 10.52 42.1903 11.32 41.9303 12.2C41.6703 13.1 40.8703 13.54 39.8703 13.28C38.6303 12.98 37.4103 12.66 36.1903 12.3C35.7703 12.18 35.6303 12.3 35.5103 12.68C34.9703 14.42 34.3103 16.12 33.4703 17.74C33.2703 18.14 33.3103 18.34 33.7103 18.56C34.6503 19.06 35.5703 19.62 36.4903 20.16C37.4303 20.72 37.7103 21.62 37.2503 22.44C36.7903 23.26 35.8503 23.46 34.9103 22.94C33.9503 22.4 33.0103 21.86 32.0703 21.28C31.7503 21.1 31.5903 21.08 31.3703 21.42C30.4903 22.78 29.5103 24.08 28.4303 25.28C28.1703 25.56 28.1703 25.74 28.4503 26C29.2303 26.74 29.9703 27.5 30.7303 28.28C31.5103 29.08 31.5703 29.98 30.9103 30.68C30.2503 31.38 29.2703 31.32 28.4703 30.54C27.7303 29.8 26.9703 29.08 26.2503 28.3C25.9503 27.98 25.7703 28 25.4703 28.28C24.2503 29.42 22.9303 30.46 21.5103 31.36C21.1103 31.62 21.1303 31.82 21.3503 32.18C21.9503 33.18 22.5303 34.2 23.1103 35.22C23.6503 36.16 23.4503 37.1 22.6503 37.58C21.8103 38.08 20.9103 37.78 20.3303 36.8C19.7303 35.78 19.1503 34.78 18.5703 33.74C18.3703 33.4 18.2103 33.28 17.8303 33.48C16.1703 34.34 14.4503 35.06 12.6503 35.6C12.2903 35.7 12.1903 35.86 12.3103 36.24C12.6303 37.3 12.8903 38.36 13.1503 39.42C13.4103 40.42 12.9703 41.26 12.0903 41.5C11.1903 41.76 10.3703 41.26 10.0703 40.22C9.77033 39.18 9.49032 38.16 9.25033 37.12C9.15032 36.7 8.97032 36.54 8.53032 36.62C7.23032 36.9 5.93033 37.06 4.61033 37.14C4.07033 37.18 3.97032 37.36 3.99032 37.86C4.15032 40.24 4.53032 42.58 5.19032 44.86C8.83032 57.86 20.1903 67.1999 33.8903 68.0799ZM38.8303 68C39.4903 67.92 40.1703 67.86 40.8303 67.74C48.6103 66.44 55.0903 62.7999 60.2103 56.7799C64.6503 51.5599 67.0703 45.4799 67.6703 38.66C67.7103 38.3 67.6103 38.16 67.2303 38.2C66.1303 38.28 65.0503 38.42 63.9703 38.62C63.6103 38.68 63.5303 38.82 63.6503 39.16C63.9103 40.04 64.1503 40.94 64.3703 41.84C64.6303 42.88 64.1903 43.74 63.2703 43.96C62.3303 44.2 61.5703 43.7 61.2703 42.64C61.0303 41.76 60.7703 40.86 60.5503 39.96C60.4503 39.56 60.3103 39.48 59.9303 39.6C58.4703 40.1 57.0303 40.66 55.6303 41.34C55.3103 41.5 55.2503 41.64 55.4303 41.96C55.8503 42.64 56.2303 43.34 56.6303 44.04C57.1903 45.04 57.0303 45.9799 56.2103 46.46C55.3703 46.96 54.4703 46.66 53.8903 45.66C53.4903 44.98 53.0703 44.28 52.6903 43.58C52.5103 43.24 52.3503 43.16 52.0103 43.4C50.8703 44.18 49.7903 45.02 48.7303 45.9C48.3703 46.2 48.4703 46.38 48.7503 46.64C49.4103 47.28 50.0703 47.94 50.7103 48.6C51.5103 49.4 51.5903 50.38 50.9303 51.04C50.2503 51.72 49.2903 51.66 48.4903 50.88C47.8103 50.22 47.1303 49.56 46.4903 48.86C46.1903 48.54 46.0103 48.58 45.7303 48.9C44.8903 49.86 44.1103 50.86 43.3703 51.9C43.1503 52.22 43.1503 52.38 43.5103 52.56C44.3703 53.02 45.2103 53.52 46.0303 54.02C47.0103 54.6 47.3103 55.52 46.8103 56.34C46.3303 57.14 45.4103 57.34 44.4503 56.8C43.6303 56.34 42.8103 55.8599 41.9903 55.3799C41.6103 55.1399 41.3903 55.0799 41.1503 55.5799C40.5103 56.9399 39.9303 58.2999 39.4103 59.72C39.2303 60.2 39.3903 60.32 39.8103 60.42C40.6103 60.6199 41.4103 60.82 42.1903 61.04C43.2903 61.34 43.8103 62.12 43.5703 63.06C43.3303 64 42.4703 64.42 41.3703 64.14C40.5503 63.92 39.7303 63.7 38.9303 63.46C38.5703 63.36 38.3703 63.44 38.3303 63.84C38.1903 64.9 37.9903 65.96 37.8903 67.02C37.8303 68.0799 37.8503 68.08 38.8303 68ZM33.7703 5.13996C33.6503 4.77996 34.1303 4.15996 33.2303 4.23996C25.4903 4.95996 18.8103 7.97996 13.2903 13.5C7.77032 19.02 4.71033 25.74 4.01033 33.52C3.97033 33.94 4.03032 34.12 4.49032 34.08C5.57032 34 6.61033 33.84 7.67033 33.68C8.09033 33.62 8.19033 33.46 8.07033 33.04C7.75033 31.98 7.49033 30.92 7.21033 29.86C6.93033 28.76 7.35033 27.9 8.27033 27.66C9.19033 27.42 9.97032 27.96 10.2903 29.06C10.5903 30.12 10.8703 31.18 11.1303 32.24C11.2303 32.68 11.3903 32.8 11.8503 32.64C13.3103 32.12 14.7503 31.56 16.1303 30.88C16.5103 30.7 16.5903 30.54 16.3703 30.16C15.8503 29.32 15.3503 28.44 14.8703 27.56C14.3103 26.56 14.4903 25.64 15.3503 25.16C16.1703 24.7 17.0503 24.98 17.6103 25.94C18.1303 26.82 18.6503 27.7 19.1503 28.6C19.3103 28.88 19.4303 29.02 19.7703 28.78C20.9503 27.96 22.1103 27.06 23.1903 26.12C23.5103 25.84 23.4303 25.66 23.1703 25.42C22.3903 24.66 21.6103 23.88 20.8303 23.1C19.9703 22.22 19.8703 21.32 20.5703 20.6C21.2703 19.9 22.2103 19.98 23.0703 20.82C23.8503 21.6 24.6303 22.36 25.3903 23.16C25.6903 23.48 25.8703 23.44 26.1503 23.12C26.9903 22.12 27.7503 21.08 28.5103 20.02C28.8103 19.62 28.6903 19.46 28.3103 19.24C27.3503 18.72 26.4103 18.16 25.4503 17.6C24.4903 17.04 24.1903 16.16 24.6503 15.34C25.1103 14.48 26.0503 14.28 27.0503 14.84C28.0303 15.38 29.0103 15.94 29.9703 16.52C30.3103 16.72 30.4703 16.68 30.6303 16.32C31.3103 14.9 31.8903 13.44 32.3903 11.94C32.5303 11.52 32.3903 11.38 32.0103 11.28C31.0903 11.06 30.1703 10.8 29.2703 10.54C28.1703 10.24 27.6503 9.43996 27.9103 8.49996C28.1503 7.61996 29.0103 7.19996 30.0703 7.45996C30.9303 7.67996 31.8103 7.87996 32.6703 8.15996C33.1503 8.29996 33.3503 8.23996 33.4103 7.71996C33.5103 6.85996 33.6503 5.99996 33.7703 5.13996Z" fill="url(#paint0_linear_736_109)"/>
<defs>
<linearGradient id="paint0_linear_736_109" x1="-37.6289" y1="71.34" x2="79.0332" y2="53.276" gradientUnits="userSpaceOnUse">
<stop stop-color="#383BFE"/>
<stop offset="1" stop-color="#902CF2"/>
</linearGradient>
</defs>
</svg>
