<svg width="83" height="83" viewBox="0 0 83 83" fill="none" xmlns="http://www.w3.org/2000/svg">
<path d="M82.3299 38.7998C82.3299 40.3998 82.3299 41.9998 82.3299 43.5998C82.1099 44.1598 82.1899 44.7598 82.1299 45.3198C81.2299 53.4198 78.2899 60.6998 73.0899 66.9998C66.6499 74.7998 58.4499 79.6598 48.4899 81.4598C46.9499 81.7398 45.3899 81.8798 43.8499 82.0998C42.2499 82.0998 40.6499 82.0998 39.0499 82.0998C38.8099 81.9598 38.5299 81.9798 38.2699 81.9598C36.5099 81.8598 34.7699 81.5998 33.0699 81.2198C22.4499 78.8598 13.9299 73.2598 7.78988 64.2998C1.20988 54.6998 -0.870119 44.0798 1.50988 32.6798C3.40988 23.5598 8.02988 15.9798 15.1499 10.0198C23.9499 2.63981 34.1699 -0.520187 45.6099 0.579814C53.7099 1.35981 60.9499 4.39981 67.2299 9.57981C75.0499 16.0198 79.9099 24.2198 81.7099 34.1998C81.9699 35.6998 82.1299 37.2598 82.3299 38.7998ZM43.8499 60.3798C43.8499 65.6798 43.8699 70.9598 43.8299 76.2598C43.8299 77.0998 44.0899 77.1998 44.8099 77.1198C46.5499 76.8998 48.2899 76.6598 49.9899 76.2398C56.1899 74.6998 61.6099 71.7398 66.2299 67.3598C67.0899 66.5398 67.1099 66.5598 66.4299 65.6398C61.7499 59.2998 59.1299 52.1798 58.5299 44.3398C58.4899 43.7598 58.3099 43.5798 57.7099 43.5998C53.3499 43.6198 48.9899 43.6398 44.6299 43.5998C43.9299 43.5998 43.8099 43.8198 43.8299 44.4598C43.8499 49.7398 43.8499 55.0598 43.8499 60.3798ZM39.0499 22.0398C39.0499 16.6998 39.0299 11.3398 39.0699 5.99981C39.0699 5.35981 38.8899 5.19981 38.2699 5.25981C36.4699 5.45981 34.6899 5.71981 32.9299 6.15981C26.6499 7.71981 21.1899 10.7398 16.4899 15.1798C15.9299 15.7198 15.8699 16.0198 16.3499 16.6398C21.1099 22.9998 23.7699 30.1398 24.3699 38.0598C24.4099 38.6998 24.6499 38.8398 25.2499 38.8198C29.5899 38.7998 33.9299 38.7998 38.2499 38.8198C38.9099 38.8198 39.0899 38.6598 39.0899 37.9998C39.0499 32.6798 39.0499 27.3598 39.0499 22.0398ZM43.8499 21.9598C43.8499 27.3398 43.8699 32.6998 43.8299 38.0798C43.8299 38.6798 43.9899 38.8198 44.5899 38.8198C48.9299 38.7998 53.2699 38.7798 57.5899 38.8198C58.3499 38.8198 58.5099 38.5598 58.5499 37.8798C58.8299 33.7598 59.7899 29.7998 61.3099 25.9798C62.6699 22.5598 64.4499 19.3598 66.6899 16.4398C66.9499 16.0998 67.1499 15.8798 66.7099 15.4598C60.5299 9.53982 53.2299 6.13981 44.7099 5.27981C44.0099 5.19981 43.8299 5.35981 43.8299 6.07981C43.8699 11.3598 43.8499 16.6598 43.8499 21.9598ZM39.0499 60.3598C39.0499 55.0198 39.0299 49.6598 39.0699 44.3198C39.0699 43.7198 38.9099 43.5798 38.3099 43.5798C33.9699 43.5998 29.6299 43.6198 25.3099 43.5798C24.5499 43.5798 24.3899 43.8398 24.3499 44.5198C24.0699 48.6398 23.1099 52.5998 21.5899 56.4198C20.2299 59.8398 18.4499 63.0398 16.2099 65.9598C15.9499 66.2998 15.7499 66.5198 16.1899 66.9398C22.3699 72.8598 29.6699 76.2598 38.1899 77.1198C38.8899 77.1998 39.0699 77.0398 39.0699 76.3198C39.0299 70.9998 39.0499 65.6798 39.0499 60.3598ZM70.2899 19.5998C66.2099 25.2198 63.8699 31.4198 63.3099 38.2798C63.2499 38.8998 63.6099 38.8198 63.9899 38.8198C68.2099 38.8198 72.4499 38.7998 76.6699 38.8398C77.3099 38.8398 77.4699 38.6798 77.4099 38.0398C76.9299 32.8398 75.4099 27.9598 72.8299 23.4198C72.0699 22.0798 71.2699 20.8198 70.2899 19.5998ZM12.6099 62.7998C13.5699 61.5198 14.4099 60.2198 15.1499 58.8798C17.6699 54.3598 19.1299 49.5198 19.5899 44.3798C19.6499 43.7198 19.4499 43.5798 18.8499 43.5998C17.2099 43.6398 15.5499 43.6198 13.9099 43.6198C11.3299 43.6198 8.74988 43.6398 6.16988 43.5998C5.58988 43.5998 5.40988 43.7598 5.52988 44.3198C5.56988 44.4798 5.54988 44.6398 5.56988 44.7998C6.04988 49.6198 7.44988 54.1598 9.74988 58.3998C10.5699 59.9198 11.4899 61.3998 12.6099 62.7998ZM12.5099 38.7998C14.6699 38.7998 16.8099 38.7798 18.9699 38.8198C19.4899 38.8198 19.6699 38.6798 19.5899 38.1398C19.4499 37.2198 19.3899 36.2998 19.2499 35.3798C18.3499 29.7798 16.2499 24.6798 12.9499 20.0598C12.7699 19.7998 12.6499 19.4798 12.3099 19.9598C8.36988 25.4398 6.08988 31.4998 5.50988 38.2398C5.46988 38.8198 5.72988 38.8198 6.14988 38.8198C8.24988 38.7998 10.3899 38.7998 12.5099 38.7998ZM70.2899 62.7998C71.2699 61.5998 72.0699 60.3198 72.8099 58.9998C75.4099 54.4398 76.9299 49.5398 77.3899 44.2998C77.4299 43.7398 77.3099 43.5798 76.7299 43.5798C72.4499 43.5998 68.1699 43.5998 63.8899 43.5798C63.4099 43.5798 63.2499 43.6798 63.2899 44.1998C63.4499 45.9798 63.7099 47.7398 64.1099 49.4598C65.2699 54.3198 67.3099 58.7398 70.2899 62.7998Z" fill="url(#paint0_linear_736_104)"/>
<defs>
<linearGradient id="paint0_linear_736_104" x1="-44.0826" y1="82.0998" x2="91.7454" y2="61.0117" gradientUnits="userSpaceOnUse">
<stop stop-color="#383BFE"/>
<stop offset="1" stop-color="#902CF2"/>
</linearGradient>
</defs>
</svg>
