<svg width="82" height="82" viewBox="0 0 82 82" fill="none" xmlns="http://www.w3.org/2000/svg">
<path d="M16.67 81.9198C15.33 81.7598 13.99 81.6398 12.65 81.4398C10.23 81.0598 7.86996 80.4598 5.70996 79.2198C3.34996 77.8798 2.26996 75.6598 1.52996 73.2398C0.249962 68.9798 0.00996177 64.5998 0.129962 60.1998C0.269962 55.3798 0.949962 50.6198 2.12996 45.9398C5.40996 33.0998 11.63 22.0798 22.09 13.7198C28.47 8.61979 35.69 5.15978 43.51 2.89978C50.19 0.979783 56.97 -0.000217587 63.91 0.239782C67.51 0.359782 71.07 0.799783 74.45 2.13978C77.11 3.17978 78.81 5.05978 79.75 7.73978C81.31 12.2198 81.57 16.8598 81.41 21.5198C81.19 28.1798 79.95 34.6598 77.79 40.9798C74.43 50.8198 69.17 59.4598 61.31 66.3798C54.91 72.0198 47.55 75.9598 39.47 78.5998C34.03 80.3598 28.47 81.4798 22.77 81.8198C22.53 81.8398 22.31 81.8998 22.07 81.9598C20.29 81.9198 18.49 81.9198 16.67 81.9198ZM74.01 37.2398C73.87 37.0798 73.71 36.8798 73.53 36.6998C69.59 32.7398 65.63 28.7998 61.67 24.8398C56.11 19.2798 50.53 13.6998 44.97 8.11979C44.55 7.69979 44.21 7.57978 43.65 7.79978C42.41 8.27978 41.13 8.63979 39.89 9.11979C32.51 11.9198 25.93 15.9798 20.41 21.6798C13.85 28.4398 9.70996 36.5598 7.18996 45.5598C7.12996 45.8198 7.26996 46.2398 7.46996 46.4198C16.73 55.6998 26.01 64.9798 35.27 74.2598C35.59 74.5798 35.89 74.6798 36.31 74.5198C37.57 74.0798 38.83 73.6998 40.09 73.2598C47.03 70.7398 53.35 67.1398 58.83 62.1398C65.49 56.0598 70.03 48.5798 73.05 40.1198C73.37 39.1998 73.67 38.2598 74.01 37.2398ZM50.13 6.11978C58.61 14.5998 67.05 23.0398 75.43 31.4198C76.27 27.4598 76.71 23.2798 76.69 19.0798C76.67 15.7598 76.39 12.4398 75.27 9.25979C74.77 7.81979 73.85 6.77978 72.39 6.41978C70.25 5.89978 68.11 5.39978 65.93 5.11978C62.59 4.69978 59.23 4.89978 55.91 5.27978C53.91 5.51978 51.95 5.85978 50.13 6.11978ZM5.80996 51.7598C5.76996 51.9598 5.68996 52.2198 5.66996 52.4798C5.40996 55.3398 5.02996 58.1998 4.92996 61.0598C4.80996 64.6598 5.12996 68.2198 6.06996 71.7398C6.66996 73.9198 7.82996 75.4798 10.11 75.9798C11.93 76.3798 13.75 76.7798 15.59 76.9798C19.25 77.3798 22.93 77.0998 26.57 76.6398C27.75 76.4998 28.93 76.2598 30.07 76.0598C21.95 67.9198 13.89 59.8398 5.80996 51.7598Z" fill="url(#paint0_linear_736_98)"/>
<defs>
<linearGradient id="paint0_linear_736_98" x1="-44.307" y1="81.9598" x2="90.8523" y2="61.0899" gradientUnits="userSpaceOnUse">
<stop stop-color="#383BFE"/>
<stop offset="1" stop-color="#902CF2"/>
</linearGradient>
</defs>
</svg>
