<svg width="78" height="78" viewBox="0 0 78 78" fill="none" xmlns="http://www.w3.org/2000/svg">
<path d="M0.990234 70.0598C1.11023 69.6598 1.21024 69.2598 1.35024 68.8598C2.23024 66.3598 4.47024 64.5798 7.15024 64.4998C9.85024 64.4198 12.5302 64.4598 15.2302 64.4598C18.5302 64.4598 21.8102 64.4598 25.1102 64.4598C26.4902 64.4598 26.6902 64.3198 27.1902 63.0798C29.8702 56.4198 32.5302 49.7398 35.2302 43.0798C35.4302 42.5798 35.4302 42.1598 35.2302 41.6598C30.4502 29.7598 25.6702 17.8598 20.8902 5.97976C19.9502 3.65976 20.8102 1.73977 23.1302 0.899765C23.1902 0.879765 23.2502 0.819765 23.3102 0.779765C23.8102 0.779765 24.3102 0.779765 24.8102 0.779765C26.4102 1.31977 27.1902 2.53977 27.7902 4.05977C31.4902 13.3998 35.2502 22.6998 39.0102 32.0198C39.0902 32.2398 39.1102 32.4998 39.3902 32.6398C39.5302 32.3198 39.6502 32.0398 39.7702 31.7398C43.4702 22.5198 47.1902 13.2798 50.8702 4.03976C51.4702 2.51976 52.2502 1.29977 53.8502 0.759766C54.3502 0.759766 54.8502 0.759766 55.3502 0.759766C56.7902 1.29977 57.8502 2.17977 58.1302 3.77977C58.2702 4.63977 58.0102 5.39976 57.7102 6.17976C53.4702 16.7398 49.2302 27.2798 44.9902 37.8398C44.4702 39.1398 43.9502 40.4398 43.4102 41.7198C43.2302 42.1598 43.2102 42.5398 43.4102 42.9998C46.1302 49.7198 48.8302 56.4598 51.5302 63.1998C51.9502 64.2598 52.2302 64.4398 53.3902 64.4398C59.2102 64.4398 65.0102 64.4398 70.8302 64.4398C74.0102 64.4398 76.5102 66.2198 77.3702 69.0398C78.4702 72.6398 76.4102 76.3598 72.7502 77.3598C72.5502 77.4198 72.2902 77.3598 72.1302 77.5598C65.7502 77.5598 59.3502 77.5598 52.9702 77.5598C50.0102 76.8998 48.4902 74.8798 47.4302 72.1398C44.9302 65.6198 42.2502 59.1598 39.6502 52.6798C39.5702 52.4798 39.5502 52.2398 39.3302 52.1198C39.1102 52.2998 39.0902 52.5598 38.9902 52.7798C38.0902 55.0198 37.1902 57.2798 36.2702 59.5198C35.9702 60.2798 35.3702 60.5598 34.7302 60.3198C34.1102 60.0798 33.9102 59.4598 34.1902 58.6798C34.2302 58.5598 34.2902 58.4398 34.3302 58.3398C38.2902 48.4598 42.2702 38.5598 46.2302 28.6798C46.9302 26.9598 46.9102 26.9798 45.2102 26.2598C44.6302 26.0198 44.4302 26.1198 44.2102 26.6998C40.8502 35.1198 37.4702 43.5198 34.0902 51.9198C32.4502 56.0198 30.7902 60.1198 29.1502 64.2198C28.4902 65.8798 27.3102 66.7198 25.5502 66.7398C25.1302 66.7398 24.6902 66.7798 24.2702 66.7398C23.7502 66.6998 23.4902 66.8798 23.2902 67.3998C22.3502 69.8198 21.3702 72.2198 20.4102 74.6398C20.3302 74.8598 20.1502 75.0798 20.2302 75.3798C21.6102 75.3798 22.9702 75.3798 24.3502 75.3798C26.5702 75.3798 27.8702 74.4998 28.7102 72.4198C29.8102 69.6598 30.9102 66.8998 32.0302 64.1598C32.3702 63.2998 32.9702 62.9798 33.6302 63.2598C34.2502 63.5198 34.4302 64.1398 34.1102 64.9798C32.9502 67.8798 31.8102 70.7798 30.6302 73.6598C29.7702 75.7198 28.2302 76.9998 26.0502 77.4798C25.9302 77.4998 25.8302 77.5798 25.7102 77.6198C19.3302 77.6198 12.9302 77.6198 6.55024 77.6198C6.43024 77.4598 6.23024 77.4998 6.07024 77.4598C3.51024 76.7598 1.87023 75.1198 1.17023 72.5598C1.13023 72.3998 1.17024 72.1998 1.01024 72.0798C0.990236 71.3598 0.990234 70.6998 0.990234 70.0598ZM41.9502 45.3798C41.5102 46.4598 41.1702 47.3998 40.7702 48.3198C40.5902 48.7198 40.5902 49.0398 40.7702 49.4598C41.5702 51.3798 42.3302 53.2998 43.0902 55.2198C45.3902 60.9598 47.7102 66.6998 49.9902 72.4398C50.6302 74.0398 51.7302 75.1198 53.4502 75.2598C55.1102 75.3998 56.7702 75.2798 58.4502 75.2798C58.4902 74.9798 58.3302 74.7798 58.2502 74.5398C57.4302 72.4998 56.6302 70.4598 55.8102 68.4198C55.1302 66.7198 55.1302 66.6998 53.2502 66.6798C51.3902 66.6598 50.1502 65.8198 49.4702 64.0598C48.3102 61.0998 47.1102 58.1798 45.9302 55.2398C44.6102 52.0198 43.3102 48.7798 41.9502 45.3798ZM7.95024 75.2998C8.33024 75.1598 8.91024 75.5998 9.21024 74.8398C10.1902 72.2998 11.2102 69.7998 12.2302 67.2798C12.4102 66.8198 12.3702 66.6598 11.8502 66.6798C10.3902 66.6998 8.91024 66.6798 7.45024 66.6998C6.35024 66.7198 5.41024 67.1198 4.61024 67.8598C3.31024 69.0998 2.91023 70.9598 3.57024 72.5998C4.25024 74.3198 5.81024 75.2998 7.95024 75.2998ZM69.0902 66.6998V66.6798C68.3702 66.6798 67.6502 66.7198 66.9302 66.6798C66.3302 66.6398 66.1902 66.7998 66.4502 67.3798C67.3502 69.5398 68.2102 71.7198 69.0902 73.8798C69.6702 75.3398 69.6702 75.3398 71.2502 75.2798C73.5302 75.1998 75.3702 73.3598 75.4102 71.0998C75.4702 68.7798 73.7302 66.8398 71.4302 66.6998C70.6502 66.6598 69.8702 66.6998 69.0902 66.6998ZM14.6302 75.2998C15.5102 75.2998 16.3702 75.2798 17.2502 75.2998C17.5702 75.2998 17.7502 75.2198 17.8702 74.8998C18.8902 72.3198 19.9102 69.7598 20.9702 67.1998C21.1502 66.7798 21.0302 66.6798 20.6102 66.6798C18.8702 66.6798 17.1102 66.6798 15.3702 66.6798C15.0702 66.6798 14.8702 66.7598 14.7502 67.0798C13.7302 69.6798 12.6902 72.2598 11.6302 74.8598C11.4702 75.2598 11.5902 75.3198 11.9502 75.3198C12.8302 75.2798 13.7302 75.2998 14.6302 75.2998ZM67.2302 75.2998C66.0902 72.4598 64.9902 69.7398 63.9102 66.9998C63.7902 66.6998 63.5702 66.6798 63.3102 66.6798C61.5702 66.6798 59.8102 66.6798 58.0702 66.6798C57.6502 66.6798 57.5502 66.7798 57.7102 67.1998C58.7502 69.7598 59.7702 72.3398 60.8102 74.8998C60.9102 75.1598 61.0302 75.2998 61.3502 75.2998C63.2502 75.2998 65.1702 75.2998 67.2302 75.2998ZM36.7102 39.3198C37.1502 38.2398 37.5102 37.2998 37.9102 36.3598C38.0702 35.9998 38.0702 35.6798 37.9102 35.2998C36.8902 32.7798 35.8702 30.2598 34.8502 27.7398C34.6102 27.1598 34.5502 26.2998 34.0902 26.0998C33.5702 25.8998 32.9102 26.4998 32.3102 26.6798C31.7702 26.8398 31.7902 27.0998 31.9702 27.5598C33.1302 30.3998 34.2702 33.2398 35.4102 36.0798C35.8302 37.1398 36.2302 38.1798 36.7102 39.3198ZM55.9102 4.37977C55.9102 3.71977 55.4502 3.11977 54.8502 3.01977C54.1702 2.89977 53.6702 3.17977 53.3902 3.79977C52.9302 4.85977 52.5302 5.91976 52.0902 6.97976C51.2902 8.95977 51.2902 8.95977 53.2902 9.65977C53.3102 9.65977 53.3302 9.67977 53.3502 9.67977C53.6302 9.81977 53.7902 9.73977 53.9102 9.43977C54.5302 7.85977 55.1502 6.27977 55.7902 4.71977C55.8702 4.61977 55.8902 4.45977 55.9102 4.37977ZM24.1102 2.99977C23.1302 3.01977 22.5302 3.87976 22.8502 4.73977C23.2502 5.83977 23.6902 6.91977 24.1502 7.99977C24.3902 8.59977 24.4502 9.49977 24.9502 9.69977C25.4902 9.91977 26.1702 9.29977 26.8102 9.07977C26.8302 9.07977 26.8502 9.05977 26.8702 9.03977C27.2102 8.93977 27.2702 8.75977 27.1302 8.41977C26.4902 6.87977 25.8902 5.31977 25.2502 3.77977C25.0302 3.27977 24.5902 3.01977 24.1102 2.99977ZM33.2102 23.6598C33.1702 23.5798 33.1302 23.4398 33.0702 23.2998C32.6702 22.2998 32.2702 21.3198 31.8702 20.3198C31.1102 18.4198 31.1102 18.4198 29.1902 19.2598C28.7902 19.4398 28.7302 19.5998 28.9102 19.9798C29.3502 20.9798 29.7302 21.9998 30.1502 23.0198C30.9502 25.0198 30.9502 25.0198 32.8902 24.0598C32.9502 24.0198 33.0302 24.0198 33.0902 23.9798C33.1902 23.8998 33.2502 23.8198 33.2102 23.6598ZM47.5702 24.7598C47.8902 24.7798 47.9102 24.4998 47.9902 24.3198C48.4102 23.2998 48.8102 22.2798 49.2102 21.2798C50.0102 19.2798 50.0102 19.2798 47.9302 18.6398C47.6502 18.5598 47.4902 18.5598 47.3702 18.8798C46.7702 20.4398 46.1302 21.9798 45.5102 23.5198C45.4502 23.6798 45.3702 23.8798 45.5902 23.9598C46.2302 24.2398 46.9102 24.4998 47.5702 24.7598ZM30.2102 16.1998C30.1902 16.1598 30.1902 16.0998 30.1702 16.0598C29.5302 14.4998 28.8902 12.9198 28.2702 11.3598C28.1502 11.0598 27.9902 11.0598 27.7502 11.1598C27.1902 11.3798 26.6502 11.6398 26.0902 11.8198C25.7502 11.9398 25.7502 12.0998 25.8702 12.3798C26.4902 13.8998 27.1102 15.4198 27.7102 16.9598C27.8102 17.2398 27.9502 17.3798 28.2702 17.2398C28.8102 16.9998 29.3702 16.7798 29.9302 16.5598C30.0702 16.4798 30.2502 16.4198 30.2102 16.1998ZM52.8702 12.1398C52.9102 11.8998 52.7102 11.8798 52.5502 11.8198C52.0702 11.6198 51.5702 11.4598 51.1102 11.2198C50.6702 10.9998 50.4502 11.0798 50.2902 11.5398C49.9102 12.5598 49.4902 13.5798 49.0702 14.5998C48.3502 16.4198 48.3502 16.3998 50.2102 17.1398C50.6702 17.3198 50.8502 17.2598 51.0302 16.7998C51.5702 15.3598 52.1702 13.9398 52.7502 12.4998C52.7702 12.3798 52.8102 12.2598 52.8702 12.1398Z" fill="url(#paint0_linear_736_114)"/>
<defs>
<linearGradient id="paint0_linear_736_114" x1="-40.8686" y1="77.6198" x2="86.5121" y2="57.8998" gradientUnits="userSpaceOnUse">
<stop stop-color="#383BFE"/>
<stop offset="1" stop-color="#902CF2"/>
</linearGradient>
</defs>
</svg>
