<svg width="97" height="40" viewBox="0 0 97 40" fill="none" xmlns="http://www.w3.org/2000/svg">
<path d="M55.8471 19.96H53.2871V29.6H49.6871V19.96H47.8071V16.88H49.6871V15.68C49.6871 12.56 51.6071 10.96 54.5671 10.96C55.0071 10.96 55.4871 11 55.9271 11.12V14.72C55.5271 14.56 55.1271 14.48 54.6871 14.48C53.9671 14.44 53.3271 14.96 53.2871 15.68C53.2871 15.76 53.2871 15.8 53.2871 15.88V16.84H55.8471V19.96ZM61.2471 29.56H57.6071V11.24H61.2471V29.56Z" fill="white"/>
<path d="M69.3272 16.0801C73.1272 16.0801 76.2472 19.1601 76.2472 22.9601C76.2472 26.7601 73.1672 29.8801 69.3672 29.8801C65.5672 29.8801 62.4472 26.8001 62.4472 23.0001C62.4472 23.0001 62.4472 23.0001 62.4472 22.9601C62.4072 19.2001 65.4072 16.1201 69.1672 16.0801C69.2072 16.0801 69.2872 16.0801 69.3272 16.0801ZM69.3272 26.3201C71.1672 26.3201 72.5272 24.7601 72.5272 22.9601C72.6072 21.2001 71.2472 19.6801 69.4872 19.6001C69.4472 19.6001 69.3672 19.6001 69.3272 19.6001C67.4872 19.6801 66.0072 21.2401 66.0872 23.0801C66.1672 24.8401 67.5672 26.2801 69.3272 26.3201Z" fill="white"/>
<path d="M80.0071 16.3198L82.3671 25.1198L84.7271 18.1198L84.0871 16.3198H87.6871L90.7671 25.1198L93.0471 16.3198H96.7671L92.8471 29.5598H89.0871L86.4471 22.3198L84.0071 29.5598H80.2071L76.2871 16.3198H80.0071Z" fill="white"/>
<path d="M20.7671 40C31.8128 40 40.7671 31.0457 40.7671 20C40.7671 8.95431 31.8128 0 20.7671 0C9.7214 0 0.76709 8.95431 0.76709 20C0.76709 31.0457 9.7214 40 20.7671 40Z" fill="#00EF8B"/>
<path d="M29.5272 16.8799H23.8872V22.5199H29.5272V16.8799Z" fill="white"/>
<path d="M18.2472 24.6399C18.2472 25.7999 17.2872 26.7599 16.1272 26.7599C14.9672 26.7599 14.0072 25.7999 14.0072 24.6399C14.0072 23.4799 14.9672 22.5199 16.1272 22.5199H18.2472V16.8799H16.1272C11.8472 16.8799 8.36719 20.3599 8.36719 24.6399C8.36719 28.9199 11.8472 32.3999 16.1272 32.3999C20.4072 32.3999 23.8872 28.9199 23.8872 24.6399V22.5199H18.2472V24.6399Z" fill="white"/>
<path d="M26.0071 14.0399H32.3671V8.3999H26.0071C21.7271 8.3999 18.2471 11.8799 18.2471 16.1599V16.8799H23.8871V16.1599C23.8871 14.9999 24.8471 14.0399 26.0071 14.0399Z" fill="white"/>
<path d="M18.2471 22.5199H23.8871V16.8799H18.2471V22.5199Z" fill="#16FF99"/>
</svg>
