<svg width="193" height="36" viewBox="0 0 193 36" fill="none" xmlns="http://www.w3.org/2000/svg">
<g clip-path="url(#clip0_341_231)">
<path d="M179.923 29.2562L172.719 12.7129H177.543L182.463 24.5774L188.15 12.7129H192.895L181.681 35.4998H176.856L179.923 29.2562ZM162.38 25.831C162.806 25.7341 163.217 25.581 163.602 25.3758C163.974 25.1777 164.321 24.9336 164.632 24.6493C164.944 24.3643 165.213 24.0363 165.431 23.6752C165.66 23.2959 165.837 22.8878 165.958 22.4616C166.089 21.9966 166.154 21.5155 166.15 21.0324C166.154 20.5441 166.09 20.0576 165.958 19.5873C165.837 19.1611 165.66 18.753 165.431 18.3737C165.211 18.0111 164.942 17.6807 164.632 17.3916C164.324 17.1049 163.977 16.863 163.602 16.6731C163.214 16.4778 162.803 16.3304 162.38 16.2339C161.934 16.1319 161.479 16.081 161.022 16.0822C160.568 16.0807 160.115 16.1316 159.672 16.2339C159.254 16.3304 158.849 16.4779 158.466 16.6731C158.092 16.8655 157.745 17.1072 157.436 17.3916C157.121 17.6791 156.85 18.0097 156.629 18.3737C156.4 18.7522 156.226 19.1607 156.11 19.5873C155.983 20.0585 155.922 20.5446 155.926 21.0324C155.922 21.5149 155.984 21.9957 156.11 22.4616C156.226 22.8882 156.4 23.2967 156.629 23.6752C156.849 24.0377 157.12 24.3659 157.436 24.6493C157.749 24.9312 158.095 25.1751 158.466 25.3758C158.846 25.5809 159.251 25.734 159.672 25.831C160.115 25.9335 160.568 25.9844 161.022 25.9827C161.479 25.9841 161.934 25.9332 162.38 25.831ZM157.515 29.5356C156.776 29.3475 156.064 29.0629 155.399 28.6893C154.103 27.9608 153.033 26.8888 152.308 25.5915C151.934 24.9207 151.649 24.2041 151.461 23.4597C151.067 21.8601 151.067 20.1889 151.461 18.5893C151.648 17.8472 151.933 17.1331 152.308 16.4655C153.037 15.1728 154.106 14.1042 155.399 13.3756C156.064 13.0021 156.776 12.7175 157.515 12.5293C158.306 12.3288 159.12 12.2295 159.936 12.2339C160.376 12.2329 160.816 12.2596 161.254 12.3137C161.656 12.3635 162.054 12.4435 162.444 12.5532C162.805 12.6558 163.16 12.7812 163.506 12.9285C163.83 13.0662 164.142 13.229 164.44 13.4155C164.721 13.5911 164.983 13.7944 165.223 14.0223C165.448 14.2353 165.656 14.4649 165.846 14.709V12.7129H170.431V29.352H165.846V27.3559C165.553 27.7236 165.218 28.0558 164.848 28.346C164.439 28.6672 163.99 28.9354 163.514 29.1444C162.984 29.377 162.429 29.5485 161.861 29.6554C161.226 29.7755 160.581 29.8343 159.936 29.831C159.12 29.8354 158.306 29.7361 157.515 29.5356ZM140.871 16.9286C141.528 16.9406 142.183 16.8654 142.82 16.705C143.316 16.5797 143.78 16.3481 144.178 16.0263C144.537 15.7267 144.812 15.3387 144.976 14.9006C145.155 14.4041 145.242 13.8792 145.232 13.3516C145.242 12.8267 145.156 12.3043 144.976 11.8107C144.812 11.3773 144.537 10.9946 144.178 10.7009C143.778 10.3839 143.315 10.1553 142.82 10.0302C142.183 9.86999 141.528 9.79482 140.871 9.80665H136.366V16.9286L140.871 16.9286ZM131.622 5.87842H141.318C142.841 5.87842 144.162 6.06472 145.28 6.43732C146.398 6.80992 147.319 7.32623 148.044 7.98625C148.764 8.64068 149.32 9.4559 149.665 10.3656C150.028 11.3245 150.209 12.3424 150.2 13.3676C150.212 14.3904 150.03 15.4062 149.665 16.3617C149.314 17.2638 148.759 18.0726 148.044 18.725C147.319 19.3905 146.398 19.9095 145.28 20.2819C144.162 20.6548 142.841 20.8411 141.318 20.8408H136.366V29.352H131.622V5.87842ZM111.248 12.7129H115.801V14.709C116.082 14.3215 116.415 13.9749 116.792 13.679C117.19 13.3668 117.624 13.104 118.086 12.8965C118.594 12.6693 119.128 12.5031 119.675 12.4015C120.283 12.2872 120.901 12.231 121.52 12.2339C122.484 12.2201 123.442 12.3824 124.348 12.7129C125.154 13.01 125.885 13.4816 126.488 14.0942C127.094 14.729 127.552 15.4896 127.83 16.3218C128.151 17.2787 128.307 18.2828 128.293 19.2919V29.352H123.741V20.4736C123.752 19.8245 123.66 19.1778 123.469 18.5573C123.311 18.0451 123.047 17.5717 122.694 17.1681C122.355 16.7931 121.93 16.5055 121.456 16.3298C120.919 16.1354 120.35 16.0407 119.779 16.0503C119.205 16.0412 118.634 16.1359 118.094 16.3298C117.616 16.504 117.189 16.7918 116.848 17.1681C116.495 17.5717 116.231 18.0451 116.073 18.5573C115.882 19.1778 115.79 19.8245 115.801 20.4736V29.352H111.248V12.7129ZM100.045 25.7831C100.48 25.678 100.9 25.5226 101.299 25.3199C101.678 25.1262 102.026 24.8758 102.329 24.5774C102.63 24.283 102.891 23.9501 103.104 23.5874C103.322 23.2138 103.483 22.8103 103.583 22.3897C103.692 21.9347 103.746 21.4683 103.743 21.0005C103.746 20.5353 103.692 20.0715 103.583 19.6192C103.382 18.7856 102.947 18.0267 102.329 17.4315C102.022 17.1358 101.675 16.8833 101.299 16.681C100.904 16.4691 100.482 16.3106 100.045 16.2099C99.5708 16.1011 99.0857 16.0475 98.5992 16.0503C98.1181 16.0481 97.6383 16.1017 97.1695 16.2099C96.7347 16.3097 96.3155 16.4682 95.9235 16.681C95.5508 16.8846 95.207 17.137 94.9011 17.4315C94.5998 17.7215 94.3439 18.0553 94.1423 18.4216C93.9362 18.7979 93.7753 19.1972 93.663 19.6113C93.5423 20.0644 93.4832 20.5316 93.4873 21.0005C93.4846 21.4693 93.5437 21.9364 93.663 22.3898C93.7723 22.8073 93.9333 23.2097 94.1423 23.5874C94.3465 23.952 94.602 24.2854 94.9011 24.5774C95.2029 24.8745 95.5475 25.1248 95.9235 25.32C96.3188 25.5235 96.7371 25.679 97.1695 25.7831C97.6375 25.8967 98.1176 25.953 98.5992 25.9508C99.0861 25.9536 99.5716 25.8973 100.045 25.7831V25.7831ZM95.9154 29.5276C95.094 29.3365 94.2978 29.0498 93.5432 28.6733C92.8334 28.3196 92.1751 27.8711 91.5863 27.34C91.0157 26.8239 90.5209 26.2299 90.1166 25.5755C89.7068 24.9093 89.3922 24.189 89.1821 23.4357C88.7454 21.8416 88.7454 20.1595 89.1821 18.5653C89.3913 17.8142 89.706 17.0965 90.1166 16.4336C90.5238 15.7812 91.0183 15.1876 91.5863 14.6691C92.1735 14.1338 92.832 13.6824 93.5432 13.3277C94.2979 12.9514 95.094 12.6647 95.9154 12.4734C97.6925 12.0689 99.5378 12.0689 101.315 12.4734C102.132 12.663 102.923 12.9498 103.671 13.3277C104.379 13.6876 105.037 14.1386 105.628 14.6691C106.205 15.1857 106.707 15.7795 107.122 16.4336C107.537 17.0951 107.854 17.8131 108.064 18.5653C108.501 20.1595 108.501 21.8416 108.064 23.4357C107.854 24.1902 107.536 24.9107 107.122 25.5755C106.71 26.2317 106.207 26.8259 105.628 27.34C105.036 27.8663 104.378 28.3144 103.671 28.6733C102.925 29.0506 102.137 29.3374 101.323 29.5276C99.5431 29.9322 97.6952 29.9322 95.9154 29.5276ZM78.1497 25.7831C78.5843 25.6781 79.0052 25.5226 79.4037 25.3199C79.7829 25.1262 80.1303 24.8758 80.4341 24.5774C80.7349 24.283 80.9954 23.9501 81.2089 23.5874C81.4267 23.2139 81.5882 22.8103 81.6881 22.3897C81.7968 21.9347 81.8504 21.4683 81.8479 21.0005C81.8507 20.5353 81.797 20.0715 81.6881 19.6192C81.4867 18.7856 81.0517 18.0267 80.4341 17.4315C80.1263 17.1358 79.7797 16.8833 79.4037 16.681C79.0085 16.469 78.5868 16.3106 78.1497 16.2099C77.6756 16.1011 77.1904 16.0475 76.704 16.0503C76.2228 16.0481 75.7431 16.1017 75.2743 16.2099C74.8394 16.3097 74.4202 16.4682 74.0282 16.681C73.6556 16.8847 73.3118 17.1371 73.0058 17.4315C72.7045 17.7215 72.4487 18.0553 72.247 18.4216C72.0411 18.7979 71.8803 19.1972 71.7678 19.6112C71.6471 20.0643 71.588 20.5316 71.5921 21.0005C71.5894 21.4693 71.6484 21.9364 71.7678 22.3897C71.8773 22.8072 72.0383 23.2095 72.247 23.5874C72.4512 23.952 72.7068 24.2854 73.0058 24.5774C73.3078 24.8744 73.6523 25.1247 74.0282 25.3199C74.4236 25.5235 74.8419 25.679 75.2743 25.7831C75.7423 25.8967 76.2224 25.953 76.704 25.9507C77.1909 25.9536 77.6764 25.8973 78.1497 25.7831ZM74.0202 29.5276C73.1988 29.3366 72.4026 29.0499 71.648 28.6734C70.9382 28.3197 70.2799 27.8711 69.6911 27.34C69.1205 26.824 68.6258 26.2299 68.2214 25.5756C67.8116 24.9094 67.497 24.1891 67.2869 23.4358C66.8502 21.8417 66.8502 20.1595 67.2869 18.5654C67.4961 17.8143 67.8108 17.0966 68.2214 16.4336C68.6287 15.7814 69.1231 15.1877 69.6911 14.6692C70.2783 14.1339 70.9369 13.6825 71.648 13.3278C72.4027 12.9515 73.1988 12.6648 74.0202 12.4735C75.7973 12.069 77.6426 12.069 79.4197 12.4735C80.2365 12.663 81.0276 12.9498 81.776 13.3278C82.484 13.6877 83.1419 14.1386 83.7329 14.6692C84.3097 15.1857 84.8124 15.7795 85.2265 16.4336C85.6418 17.0951 85.9593 17.8131 86.169 18.5654C86.6057 20.1595 86.6057 21.8417 86.169 23.4358C85.9584 24.1903 85.641 24.9108 85.2265 25.5756C84.8153 26.2318 84.3123 26.826 83.7329 27.34C83.1404 27.8664 82.4827 28.3145 81.776 28.6734C81.0301 29.0506 80.2417 29.3374 79.4277 29.5276C77.6479 29.9322 75.8 29.9322 74.0202 29.5276ZM38.0864 5.87842H42.8788L51.0739 18.3976L59.3009 5.87842H64.0934V29.352H59.3488V13.2558L52.5436 23.6353H49.6362L42.8309 13.2558V29.352H38.0864V5.87842Z" fill="white"/>
<path d="M27.1434 10.081C28.0913 10.081 29.0178 9.80009 29.8059 9.2737C30.5941 8.74731 31.2083 7.99913 31.571 7.12378C31.9338 6.24843 32.0287 5.28521 31.8438 4.35594C31.6588 3.42667 31.2024 2.57308 30.5322 1.90311C29.8619 1.23315 29.008 0.776894 28.0784 0.592051C27.1487 0.407207 26.1851 0.502076 25.3094 0.864659C24.4337 1.22724 23.6853 1.84126 23.1587 2.62905C22.6321 3.41685 22.351 4.34305 22.351 5.29052C22.351 5.91964 22.4749 6.54259 22.7157 7.12383C22.9565 7.70506 23.3096 8.23317 23.7546 8.67802C24.1996 9.12287 24.7279 9.47574 25.3094 9.71647C25.8909 9.9572 26.5141 10.0811 27.1434 10.081ZM12.4486 31.6563C10.1383 31.6563 7.87974 30.9715 5.95872 29.6884C4.0377 28.4054 2.54045 26.5817 1.6563 24.448C0.77215 22.3143 0.540817 19.9665 0.991554 17.7014C1.44229 15.4363 2.55485 13.3557 4.18855 11.7226C5.82225 10.0896 7.9037 8.97745 10.1697 8.5269C12.4357 8.07634 14.7845 8.30759 16.919 9.19139C19.0535 10.0752 20.8779 11.5719 22.1615 13.4921C23.4451 15.4124 24.1302 17.67 24.1302 19.9795C24.1302 21.5129 23.8281 23.0314 23.2411 24.4481C22.654 25.8648 21.7936 27.1521 20.7088 28.2364C19.6241 29.3207 18.3363 30.1808 16.919 30.7676C15.5017 31.3544 13.9827 31.6564 12.4486 31.6563Z" fill="#7D00FF"/>
</g>
<defs>
<clipPath id="clip0_341_231">
<rect width="192.128" height="35" fill="white" transform="translate(0.76709 0.5)"/>
</clipPath>
</defs>
</svg>
