<svg width="24" height="32" viewBox="0 0 24 32" fill="none" xmlns="http://www.w3.org/2000/svg">
<path d="M24 28C24 29.0609 23.5786 30.0783 22.8284 30.8284C22.0783 31.5786 21.0609 32 20 32H4C2.93913 32 1.92172 31.5786 1.17157 30.8284C0.421427 30.0783 0 29.0609 0 28V4C0 2.93913 0.421427 1.92172 1.17157 1.17157C1.92172 0.421427 2.93913 0 4 0L15 0L24 9V28ZM4 2C3.46957 2 2.96086 2.21071 2.58579 2.58579C2.21071 2.96086 2 3.46957 2 4V24L6.448 19.552C6.60563 19.3947 6.81124 19.2946 7.03223 19.2674C7.25323 19.2402 7.47697 19.2876 7.668 19.402L12 22L16.314 15.96C16.3984 15.842 16.5075 15.7437 16.6337 15.672C16.7599 15.6004 16.9002 15.5571 17.0448 15.5451C17.1895 15.5331 17.335 15.5527 17.4712 15.6026C17.6075 15.6525 17.7313 15.7315 17.834 15.834L22 20V9H18C17.2044 9 16.4413 8.68393 15.8787 8.12132C15.3161 7.55871 15 6.79565 15 6V2H4Z" fill="#82839D"/>
</svg>
